HIERARCHY
ROOT Hips
{
	OFFSET -3.958830 18.904000 13.208200
	CHANNELS 6 Xposition Yposition Zposition Zrotation Yrotation Xrotation 
	JOINT LHipJoint
	{
		OFFSET 0.000000 0.000000 0.000000
		CHANNELS 3 Zrotation Yrotation Xrotation
		JOINT LeftUpLeg
		{
			OFFSET 1.800000 -1.400000 0.085000
			CHANNELS 3 Zrotation Yrotation Xrotation
			JOINT LeftLeg
			{
				OFFSET 2.215000 -6.000000 0.000000
				CHANNELS 3 Zrotation Yrotation Xrotation
				JOINT LeftFoot
				{
					OFFSET 2.500000 -6.900000 0.000000
					CHANNELS 3 Zrotation Yrotation Xrotation
					JOINT LeftToeBase
					{
						OFFSET 0.200000 -0.500000 1.950000
						CHANNELS 3 Zrotation Yrotation Xrotation
						End Site
						{
							OFFSET 0.000000 0.000000 0.000000
						}
					}
				}
			}
		}
	}
	JOINT RHipJoint
	{
		OFFSET 0.000000 0.000000 0.000000
		CHANNELS 3 Zrotation Yrotation Xrotation
		JOINT RightUpLeg
		{
			OFFSET -1.800000 -1.400000 0.085000
			CHANNELS 3 Zrotation Yrotation Xrotation
			JOINT RightLeg
			{
				OFFSET -2.215000 -6.000000 0.000000
				CHANNELS 3 Zrotation Yrotation Xrotation
				JOINT RightFoot
				{
					OFFSET -2.500000 -6.900000 0.000000
					CHANNELS 3 Zrotation Yrotation Xrotation
					JOINT RightToeBase
					{
						OFFSET -0.200000 -0.500000 1.950000
						CHANNELS 3 Zrotation Yrotation Xrotation
						End Site
						{
							OFFSET 0.000000 0.000000 0.000000
						}
					}
				}
			}
		}
	}
	JOINT LowerBack
	{
		OFFSET 0.000000 0.000000 0.000000
		CHANNELS 3 Zrotation Yrotation Xrotation
		JOINT Spine
		{
			OFFSET -0.087000 1.940000 -0.288900
			CHANNELS 3 Zrotation Yrotation Xrotation
			JOINT Spine1
			{
				OFFSET 0.000000 1.950000 0.060000
				CHANNELS 3 Zrotation Yrotation Xrotation
				JOINT Neck
				{
					OFFSET 0.000000 0.000000 0.000000
					CHANNELS 3 Zrotation Yrotation Xrotation
					JOINT Neck1
					{
						OFFSET 0.000000 1.600000 0.340000
						CHANNELS 3 Zrotation Yrotation Xrotation
						JOINT Head
						{
							OFFSET 0.000000 1.667000 -0.240000
							CHANNELS 3 Zrotation Yrotation Xrotation
							End Site
							{
								OFFSET 0.000000 0.000000 0.000000
							}
						}
					}
				}
				JOINT LeftShoulder
				{
					OFFSET 0.000000 0.000000 0.000000
					CHANNELS 3 Zrotation Yrotation Xrotation
					JOINT LeftArm
					{
						OFFSET 2.700000 1.550000 -0.730000
						CHANNELS 3 Zrotation Yrotation Xrotation
						JOINT LeftForeArm
						{
							OFFSET 5.450000 0.000000 0.000000
							CHANNELS 3 Zrotation Yrotation Xrotation
							JOINT LeftHand
							{
								OFFSET 3.450000 0.000000 0.000000
								CHANNELS 3 Zrotation Yrotation Xrotation
								JOINT LeftHandIndex1
								{
									OFFSET 0.750000 0.000000 0.000000
									CHANNELS 3 Zrotation Yrotation Xrotation
									End Site
									{
										OFFSET 0.000000 0.000000 0.000000
									}
								}
							}
						}
					}
				}
				JOINT RightShoulder
				{
					OFFSET 0.000000 0.000000 0.000000
					CHANNELS 3 Zrotation Yrotation Xrotation
					JOINT RightArm
					{
						OFFSET -2.700000 1.550000 -0.730000
						CHANNELS 3 Zrotation Yrotation Xrotation
						JOINT RightForeArm
						{
							OFFSET -5.450000 0.000000 0.000000
							CHANNELS 3 Zrotation Yrotation Xrotation
							JOINT RightHand
							{
								OFFSET -3.450000 0.000000 0.000000
								CHANNELS 3 Zrotation Yrotation Xrotation
								JOINT RightHandIndex1
								{
									OFFSET -0.750000 0.000000 0.000000
									CHANNELS 3 Zrotation Yrotation Xrotation
									End Site
									{
										OFFSET 0.000000 0.000000 0.000000
									}
								}
							}
						}
					}
				}
			}
		}
	}
}
MOTION
Frames: 8
Frame Time: 0.016667
0.293800 16.349830 -0.823770 -0.497706 7.935043 0.717885 -15.003013 12.691884 3.292475 -0.370822 -0.480817 -6.423732 -8.952712 4.384159 2.705997 -0.215757 3.633476 3.512047 0.394340 0.139680 0.324110 18.364837 -12.015562 2.298714 -5.594129 0.752972 -25.446124 -8.475240 -2.482354 28.577347 -0.059642 -3.854719 2.945588 0.144560 0.211940 0.226610 -4.092180 1.072772 -7.265978 11.201052 -4.110432 8.239425 -5.373397 -3.769596 4.294926 4.396621 9.481225 -11.620247 17.884360 -24.382981 20.116267 -2.791060 -18.050410 -1.590630 -14.788286 -9.440194 4.327347 -28.439533 0.844632 -1.587774 -64.834723 -24.568196 12.489681 -3.643084 3.625369 0.088930 0.178630 -0.132970 0.191240 4.354544 4.329626 9.155942 41.964620 -5.316889 -7.088787 58.358293 37.271914 12.539820 2.236615 -2.216608 -0.042250 0.017460 -0.179950 -0.005480 
0.291310 16.352930 -0.828210 -0.682906 6.834762 0.768498 -14.992093 12.702721 3.274311 -0.194192 -0.542634 -6.688923 -9.087855 4.465408 3.155570 -0.222365 3.654314 3.502089 0.399360 0.136890 0.332260 18.375123 -11.989607 2.328635 -5.337431 0.852799 -25.608591 -8.274901 -2.512759 28.401875 -0.055512 -3.828494 2.950790 0.144560 0.213410 0.241840 -4.095998 1.034576 -7.261370 11.408731 -4.170177 8.172504 -5.424807 -3.822752 4.331066 4.446899 9.424252 -11.495584 17.675861 -24.036593 20.315011 -3.205250 -17.611360 -1.269450 -15.007895 -9.465601 4.317796 -28.347174 0.780191 -1.545520 -65.113291 -24.420448 12.451824 -3.653788 3.641759 0.086410 0.188560 -0.133910 0.192040 4.529296 4.299969 8.978181 42.068746 -4.999193 -6.989490 58.267855 36.982165 12.405442 2.234341 -2.226434 -0.038840 0.005120 -0.180710 -0.009730 
0.284580 16.355830 -0.835550 -0.832484 4.990915 1.023676 -14.984865 12.715179 3.244502 -0.204837 -0.634773 -7.251691 -9.040400 4.531795 3.803778 -0.225236 3.626371 3.508656 0.401410 0.148650 0.338550 18.385438 -11.940864 2.376054 -4.992990 0.972105 -26.077535 -7.810798 -2.611685 28.177327 -0.040071 -3.785678 2.964224 0.151750 0.216140 0.247720 -4.078359 0.968539 -7.239946 11.370362 -4.274385 7.931508 -5.285997 -3.987043 4.388036 4.527788 9.318475 -11.294404 17.371022 -23.537869 20.420790 -4.007950 -16.782790 -0.635940 -15.009130 -9.304535 4.236571 -28.970875 0.453365 -1.527018 -65.136119 -24.463846 12.509424 -3.673242 3.656907 0.060280 0.207640 -0.139400 0.192410 4.469648 4.094408 8.696076 42.794339 -4.426341 -6.833445 58.073333 36.337128 12.057399 2.235777 -2.244515 -0.031260 -0.006330 -0.188990 -0.007460 
0.274310 16.360110 -0.849730 -1.159586 2.128835 1.253175 -14.960147 12.723487 3.210673 -0.206072 -0.698485 -7.764553 -8.688914 4.534111 4.337251 -0.220806 3.561886 3.529280 0.384520 0.151070 0.324930 18.409304 -11.888270 2.471743 -4.316149 1.242259 -26.779933 -7.181355 -2.746983 28.192705 -0.024473 -3.748941 2.983394 0.148200 0.226470 0.246380 -4.087356 0.937894 -7.252147 11.642370 -4.444757 8.077689 -5.440170 -4.125668 4.199313 4.657704 9.225862 -11.111461 17.096914 -22.560789 20.878884 -4.413840 -15.634880 0.005410 -14.720338 -8.822301 4.080997 -29.935295 0.151828 -1.505706 -64.881644 -24.601721 12.616169 -3.693685 3.657558 0.033630 0.227230 -0.143460 0.192870 3.972379 3.626352 8.440185 44.288956 -3.599921 -6.698573 58.028303 36.211729 12.046858 2.239006 -2.254821 -0.026350 -0.011100 -0.190920 0.001170 
0.261050 16.363610 -0.868580 -1.400030 -1.686717 1.509829 -14.943413 12.729843 3.190356 -0.366375 -0.735054 -8.088241 -8.215006 4.466483 4.574270 -0.230505 3.497235 3.555060 0.384130 0.152220 0.339720 18.427270 -11.797673 2.602362 -3.712883 1.678452 -27.942202 -6.191406 -3.041473 28.948298 -0.033751 -3.781298 2.972498 0.144480 0.226430 0.249600 -4.064563 0.865905 -7.297152 11.674029 -4.434551 8.557591 -5.385603 -4.048324 3.746371 4.740344 9.075724 -10.948566 16.675641 -21.449601 21.580156 -4.816090 -14.302040 0.229970 -14.505903 -8.218350 3.839615 -31.109195 -0.154293 -1.492782 -64.221634 -24.825231 12.672599 -3.701543 3.639166 0.041050 0.234740 -0.130730 0.197620 3.642638 3.162950 8.237633 45.923229 -3.156217 -6.799732 57.860112 36.385033 12.121322 2.238599 -2.252404 -0.031040 -0.010120 -0.203360 -0.004750 
0.247340 16.369960 -0.888640 -1.579441 -5.860663 1.792397 -14.930743 12.745808 3.171232 -0.582386 -0.762821 -8.384917 -7.638047 4.375109 4.769666 -0.211657 3.399831 3.588647 0.384730 0.161720 0.347170 18.442026 -11.685214 2.750527 -3.141954 2.174127 -29.264891 -5.052275 -3.459258 30.344601 -0.057842 -3.905500 2.929669 0.134510 0.215100 0.249130 -4.034898 0.741824 -7.360996 11.583311 -4.458955 9.192000 -5.092181 -3.993385 3.104381 4.590923 8.763216 -10.768643 15.875155 -20.209174 22.526309 -4.986110 -13.070370 0.624230 -14.070134 -7.504942 3.548619 -32.574743 -0.685512 -1.430067 -63.635368 -24.764028 12.620227 -3.692135 3.639066 0.036040 0.231870 -0.114030 0.206630 3.540770 2.681987 8.006917 47.520719 -3.046900 -7.069292 57.349306 36.500351 12.043927 2.258186 -2.253168 -0.019480 -0.024180 -0.226420 0.000550 
0.237300 16.381830 -0.918040 -1.830844 -10.108768 1.749592 -14.910934 12.809615 3.151176 -0.620439 -0.812461 -8.642407 -7.109475 4.390747 5.555961 -0.186151 3.328892 3.605026 0.387620 0.155290 0.367460 18.450983 -11.576415 2.919608 -2.613127 2.704242 -30.424474 -3.837367 -4.107476 32.874461 -0.126068 -4.205118 2.816123 0.105690 0.183830 0.245670 -4.010011 0.538686 -7.478052 11.672951 -4.753250 10.588980 -4.928532 -4.048463 2.110901 4.286020 8.359654 -10.662971 14.828444 -18.728128 24.194514 -4.509720 -12.025470 0.696610 -13.785895 -6.827151 3.375817 -33.792114 -0.764511 -1.599556 -62.898963 -25.506992 12.933022 -3.653537 3.640435 0.060520 0.199650 -0.085610 0.205450 3.838626 2.302355 7.751732 48.620499 -3.089036 -7.414827 56.761534 36.553429 11.980946 2.297697 -2.231754 -0.005820 -0.045870 -0.246850 -0.003610 
0.225800 16.393800 -0.947280 -1.996079 -14.482780 1.889495 -14.903315 12.862666 3.104060 -0.679040 -0.921176 -9.210093 -6.590427 4.446802 6.772957 -0.163047 3.252340 3.615419 0.398530 0.174070 0.373380 18.459378 -11.429689 3.102398 -2.235328 3.335531 -31.732198 -2.556920 -4.972492 36.286821 -0.226518 -4.704369 2.632123 0.095280 0.157690 0.239520 -3.980368 0.291466 -7.568829 11.521906 -5.051908 11.709615 -4.663603 -4.185696 1.265379 3.952952 7.830830 -10.346284 13.566038 -17.155259 25.466003 -3.808420 -11.046420 0.587040 -13.576014 -5.958988 3.156061 -34.760118 -0.778713 -1.762975 -62.220079 -26.131171 13.171853 -3.616168 3.658989 0.066750 0.172430 -0.063850 0.209800 4.367199 1.693593 7.207129 49.036426 -2.930658 -7.406161 56.409578 36.038523 11.832047 2.335516 -2.222820 0.014460 -0.067030 -0.268170 0.003240 
